<svg width="46" height="70" viewBox="0 0 46 70" fill="none" xmlns="http://www.w3.org/2000/svg">
<path d="M11.5023 70C17.8491 70 23 64.7733 23 58.3333V46.6667H11.5023C5.15561 46.6667 0.00463867 51.8933 0.00463867 58.3333C0.00463867 64.7733 5.15561 70 11.5023 70Z" fill="#0ACF83"/>
<path d="M0.00463867 35C0.00463867 28.56 5.15561 23.3333 11.5023 23.3333H23V46.6666H11.5023C5.15561 46.6666 0.00463867 41.44 0.00463867 35Z" fill="#A259FF"/>
<path d="M0.00463867 11.6667C0.00463867 5.22666 5.15561 0 11.5023 0H23V23.3333H11.5023C5.15561 23.3333 0.00463867 18.1067 0.00463867 11.6667Z" fill="#F24E1E"/>
<path d="M23 0H34.4977C40.8445 0 45.9954 5.22666 45.9954 11.6667C45.9954 18.1067 40.8445 23.3333 34.4977 23.3333H23V0Z" fill="#FF7262"/>
<path d="M45.9954 35C45.9954 41.44 40.8445 46.6666 34.4977 46.6666C28.151 46.6666 23 41.44 23 35C23 28.56 28.151 23.3333 34.4977 23.3333C40.8445 23.3333 45.9954 28.56 45.9954 35Z" fill="#1ABCFE"/>
</svg>
