<svg width="29" height="28" viewBox="0 0 29 28" fill="none" xmlns="http://www.w3.org/2000/svg">
<g clip-path="url(#clip0_5_38)">
<path d="M14.4107 0C6.45292 0 0 6.41825 0 14.3358C0 20.6698 4.1291 26.0435 9.85497 27.9391C10.5751 28.0718 10.8396 27.6281 10.8396 27.2494C10.8396 26.9076 10.8262 25.7782 10.8201 24.5804C6.81086 25.4476 5.9649 22.8889 5.9649 22.8889C5.30938 21.2319 4.36486 20.7914 4.36486 20.7914C3.05744 19.9016 4.46342 19.9198 4.46342 19.9198C5.91054 20.021 6.67252 21.3972 6.67252 21.3972C7.9578 23.5888 10.0437 22.9551 10.866 22.589C10.9953 21.6623 11.3689 21.03 11.781 20.672C8.5802 20.3094 5.21535 19.0801 5.21535 13.5871C5.21535 12.022 5.7783 10.7431 6.70021 9.73919C6.55058 9.37805 6.05735 7.92002 6.8398 5.94535C6.8398 5.94535 8.04991 5.56005 10.8038 7.41486C11.9532 7.09712 13.186 6.93791 14.4107 6.93252C15.6354 6.93791 16.8692 7.09712 18.0208 7.41486C20.7714 5.56005 21.9798 5.94535 21.9798 5.94535C22.7642 7.92002 22.2708 9.37805 22.1211 9.73919C23.0451 10.7431 23.6042 12.0219 23.6042 13.5871C23.6042 19.0932 20.233 20.3057 17.0241 20.6605C17.5409 21.1054 18.0015 21.9779 18.0015 23.3153C18.0015 25.2334 17.9848 26.7772 17.9848 27.2494C17.9848 27.6309 18.2442 28.0779 18.9747 27.9372C24.6974 26.0394 28.8213 20.6677 28.8213 14.3358C28.8213 6.41825 22.3693 0 14.4107 0Z" fill="#EDF8F8"/>
<path d="M5.39726 20.4217C5.36562 20.4929 5.25282 20.5142 5.15031 20.4655C5.04577 20.4187 4.987 20.3215 5.0209 20.25C5.05198 20.1767 5.16478 20.1563 5.2691 20.2055C5.37387 20.2522 5.43354 20.3502 5.39726 20.4217ZM6.10613 21.0509C6.03741 21.1143 5.90303 21.0848 5.81182 20.9847C5.71757 20.8847 5.69993 20.7511 5.76967 20.6867C5.84053 20.6234 5.97084 20.653 6.06533 20.7531C6.15959 20.8541 6.1779 20.9869 6.10602 21.051L6.10613 21.0509ZM6.59246 21.8559C6.50408 21.917 6.35964 21.8597 6.27046 21.7322C6.18219 21.6049 6.18219 21.4519 6.27238 21.3907C6.3619 21.3294 6.50408 21.3845 6.59449 21.511C6.68265 21.6406 6.68265 21.7935 6.59235 21.856L6.59246 21.8559ZM7.4148 22.7883C7.3358 22.8749 7.16762 22.8517 7.04443 22.7335C6.91852 22.6179 6.88338 22.4538 6.9626 22.3671C7.04251 22.2803 7.2117 22.3047 7.3358 22.422C7.46091 22.5374 7.49911 22.7026 7.41491 22.7883H7.4148ZM8.47765 23.1031C8.44295 23.2153 8.28088 23.2664 8.11768 23.2187C7.9547 23.1696 7.84801 23.038 7.8809 22.9246C7.9148 22.8116 8.07755 22.7584 8.242 22.8095C8.40475 22.8584 8.51167 22.9889 8.47776 23.1031H8.47765ZM9.68742 23.2366C9.69149 23.3549 9.55304 23.4529 9.3817 23.4551C9.20935 23.4588 9.06999 23.3631 9.06818 23.2468C9.06818 23.1274 9.20347 23.0303 9.37571 23.0275C9.54705 23.0241 9.68742 23.1191 9.68742 23.2366ZM10.8757 23.1913C10.8963 23.3066 10.7772 23.4251 10.6071 23.4566C10.4398 23.487 10.285 23.4158 10.2636 23.3015C10.2428 23.1832 10.3642 23.0648 10.5311 23.0341C10.7016 23.0046 10.854 23.074 10.8757 23.1913Z" fill="#EDF8F8"/>
</g>
<defs>
<clipPath id="clip0_5_38">
<rect width="28.9333" height="28" fill="white"/>
</clipPath>
</defs>
</svg>
