<svg width="29" height="28" viewBox="0 0 29 28" fill="none" xmlns="http://www.w3.org/2000/svg">
<g clip-path="url(#clip0_5_45)">
<path fill-rule="evenodd" clip-rule="evenodd" d="M2.87312 0.0559998C1.74403 0.0559998 0.828094 0.95103 0.828094 2.0537V25.947C0.828094 27.0497 1.74414 27.944 2.87312 27.944H26.4537C27.5832 27.944 28.4987 27.0496 28.4987 25.9466V2.0537C28.4987 0.95103 27.5832 0.0559998 26.4537 0.0559998H2.87312ZM9.23691 10.8393V23.3946H5.09626V10.8393H9.23691ZM9.50983 6.95644C9.50983 8.16129 8.61108 9.12539 7.16745 9.12539L7.16713 9.12528H7.14032C5.75063 9.12528 4.8522 8.16118 4.8522 6.95633C4.8522 5.72414 5.77776 4.78695 7.19491 4.78695C8.61108 4.78695 9.48281 5.72414 9.50983 6.95644ZM15.6691 23.3946H11.5288L11.5287 23.395C11.5287 23.395 11.5831 12.0176 11.529 10.8397H15.6695V12.6169C16.2199 11.7616 17.2049 10.545 19.4012 10.545C22.1254 10.545 24.1678 12.3395 24.1678 16.1958V23.3946H20.0276V16.6786C20.0276 14.9906 19.428 13.8393 17.9301 13.8393C16.786 13.8393 16.1047 14.6157 15.8055 15.3658C15.6962 15.6334 15.6691 16.0091 15.6691 16.3839V23.3946Z" fill="#EDF8F8"/>
</g>
<defs>
<clipPath id="clip0_5_45">
<rect width="27.6706" height="28" fill="white" transform="translate(0.828094)"/>
</clipPath>
</defs>
</svg>
