<svg width="80" height="72" viewBox="0 0 80 72" fill="none" xmlns="http://www.w3.org/2000/svg">
<path d="M0.558815 36.008C0.558815 30.7757 7.10286 25.8171 17.136 22.7421C14.8207 12.5028 15.8497 4.35647 20.3839 1.74836C21.429 1.13658 22.651 0.846788 23.9856 0.846788V4.43697C23.2459 4.43697 22.651 4.58187 22.1526 4.85556C19.9659 6.11132 19.0172 10.8929 19.7568 17.0429C19.9337 18.5562 20.2231 20.1501 20.5769 21.7761C23.7283 21.0033 27.1691 20.4076 30.7869 20.0213C32.9575 17.0429 35.2085 14.3381 37.4756 11.9715C32.234 7.09338 27.3139 4.42087 23.9695 4.42087V0.830688C28.3911 0.830688 34.1795 3.98619 40.0321 9.46001C45.8848 4.01839 51.6732 0.895087 56.0948 0.895087V4.48527C52.7665 4.48527 47.8303 7.14168 42.5887 11.9876C44.8397 14.3542 47.0907 17.0429 49.2292 20.0213C52.863 20.4076 56.3038 21.0033 59.4553 21.7922C59.8251 20.1823 60.0984 18.6206 60.2914 17.1234C61.0471 10.9734 60.1145 6.19181 57.9439 4.91996C57.4615 4.63016 56.8344 4.50137 56.0948 4.50137V0.911186C57.4454 0.911186 58.6674 1.20098 59.7286 1.81276C64.2467 4.42087 65.2597 12.5511 62.9283 22.7582C72.9293 25.8493 79.4412 30.7918 79.4412 36.008C79.4412 41.2404 72.8971 46.199 62.864 49.274C65.1793 59.5133 64.1503 67.6596 59.6161 70.2677C58.5709 70.8795 57.349 71.1693 55.9983 71.1693C51.5767 71.1693 45.7883 68.0138 39.9357 62.54C34.083 67.9816 28.2947 71.1049 23.873 71.1049C22.5224 71.1049 21.3004 70.8151 20.2392 70.2033C15.7211 67.5952 14.7081 59.465 17.0395 49.2579C7.07071 46.1829 0.558815 41.2243 0.558815 36.008V36.008ZM21.4934 25.2697C22.0883 27.3465 22.8279 29.4877 23.664 31.629C24.3232 30.341 25.0146 29.0531 25.7703 27.7651C26.5099 26.4772 27.2978 25.2214 28.0856 23.9978C25.8024 24.3359 23.5997 24.7545 21.4934 25.2697ZM28.8574 42.4156C30.1116 44.5891 31.3979 46.6498 32.7324 48.5656C35.1281 48.7749 37.556 48.8876 40 48.8876C42.4279 48.8876 44.8558 48.7749 47.2354 48.5817C48.57 46.6659 49.8723 44.6213 51.1265 42.4639C52.3485 40.3549 53.4579 38.2137 54.4709 36.0563C53.474 33.899 52.3485 31.7417 51.1426 29.6326C49.8884 27.4592 48.6021 25.3985 47.2676 23.4826C44.8718 23.2734 42.444 23.1607 40 23.1607C37.5721 23.1607 35.1442 23.2734 32.7646 23.4665C31.43 25.3824 30.1276 27.427 28.8735 29.5843C27.6515 31.6934 26.5421 33.8346 25.5291 35.9919C26.5421 38.1493 27.6515 40.3066 28.8574 42.4156ZM23.664 40.3227C22.7957 42.48 22.0561 44.6374 21.4451 46.7303C23.5514 47.2455 25.7703 47.6802 28.0696 48.0182C27.2817 46.7786 26.4938 45.5067 25.7542 44.2027C25.0146 42.9147 24.3232 41.6107 23.664 40.3227ZM39.9678 57.5008C41.4632 55.9553 42.9585 54.2326 44.4377 52.349C42.9906 52.4134 41.5114 52.4617 40.0161 52.4617C38.5047 52.4617 37.0093 52.4295 35.5462 52.349C36.9933 54.2326 38.4886 55.9553 39.9678 57.5008ZM51.9304 48.0182C54.2136 47.6802 56.4164 47.2616 58.5227 46.7464C57.9278 44.6696 57.1882 42.5283 56.3521 40.3871C55.6928 41.6751 55.0015 42.963 54.2458 44.251C53.4901 45.5389 52.7183 46.7947 51.9304 48.0182ZM40.0482 14.5152C38.5529 16.0608 37.0576 17.7834 35.5783 19.6671C37.0254 19.6027 38.5047 19.5544 40 19.5544C41.5114 19.5544 43.0067 19.5866 44.4699 19.6671C43.0228 17.7834 41.5275 16.0608 40.0482 14.5152ZM51.9465 23.9978C52.7344 25.2375 53.5222 26.5094 54.2618 27.8134C55.0015 29.1014 55.6928 30.3893 56.3521 31.6773C57.2203 29.52 57.96 27.3626 58.5709 25.2697C56.4646 24.7706 54.2458 24.3359 51.9465 23.9978V23.9978ZM66.4978 44.1544C72.1896 41.7234 75.8717 38.5357 75.8717 36.008C75.8717 33.4804 72.1896 30.2766 66.4978 27.8617C65.115 27.266 63.6036 26.7347 62.044 26.2357C61.1275 29.3912 59.9216 32.6754 58.4262 36.0402C59.9055 39.3889 61.0953 42.6571 61.9957 45.7965C63.5875 45.2974 65.0989 44.7501 66.4978 44.1544ZM57.8474 67.1605C60.0341 65.9048 60.9828 61.1232 60.2431 54.9732C60.0663 53.4599 59.7768 51.866 59.4231 50.24C56.2717 51.0127 52.8308 51.6084 49.2131 51.9948C47.0425 54.9732 44.7915 57.6779 42.5244 60.0446C47.766 64.9227 52.6861 67.5952 56.0305 67.5952C56.754 67.5791 57.365 67.4342 57.8474 67.1605V67.1605ZM19.7086 54.8927C18.9529 61.0427 19.8855 65.8243 22.0561 67.0961C22.5385 67.3859 23.1655 67.5147 23.9052 67.5147C27.2335 67.5147 32.1696 64.8583 37.4113 60.0124C35.1603 57.6457 32.9093 54.9571 30.7708 51.9787C27.137 51.5923 23.6961 50.9967 20.5447 50.2078C20.1749 51.8338 19.8855 53.3955 19.7086 54.8927V54.8927ZM13.5183 44.1544C14.9011 44.7501 16.4125 45.2813 17.9721 45.7804C18.8886 42.6249 20.0945 39.3406 21.5898 35.9758C20.1106 32.6271 18.9207 29.359 18.0203 26.2196C16.4285 26.7186 14.9171 27.266 13.5022 27.8617C7.81033 30.2927 4.1283 33.4804 4.1283 36.008C4.14438 38.5357 7.82641 41.7395 13.5183 44.1544V44.1544Z" fill="#61DAFB"/>
<path d="M40.0161 43.3654C35.9579 43.3654 32.6681 40.0714 32.6681 36.008C32.6681 31.9446 35.9579 28.6505 40.0161 28.6505C44.0742 28.6505 47.364 31.9446 47.364 36.008C47.364 40.0714 44.0742 43.3654 40.0161 43.3654Z" fill="#61DAFB"/>
</svg>
