<svg width="94" height="70" viewBox="0 0 94 70" fill="none" xmlns="http://www.w3.org/2000/svg">
<g clip-path="url(#clip0_9_77)">
<path d="M80.6103 40.2136C77.3512 40.232 74.5291 41.0156 72.1622 42.1825C71.2883 40.4507 70.4143 38.9375 70.2689 37.8075C70.105 36.495 69.9047 35.6927 70.105 34.1252C70.3051 32.5573 71.2154 30.3333 71.2154 30.1511C71.1971 29.987 71.015 29.1849 69.1398 29.1667C67.2647 29.1485 65.6441 29.5313 65.462 30.0235C65.2799 30.5156 64.9158 31.6458 64.6791 32.8125C64.3514 34.5261 60.9284 40.5964 58.9803 43.7865C58.343 42.5469 57.7968 41.4531 57.6874 40.578C57.5237 39.2656 57.3232 38.4634 57.5237 36.8958C57.724 35.328 58.6343 33.1042 58.6343 32.9219C58.6161 32.7578 58.4341 31.9557 56.5589 31.9375C54.6834 31.9193 53.0631 32.3021 52.8811 32.7943C52.699 33.2865 52.4987 34.4531 52.0982 35.5833C51.7156 36.7136 47.1639 46.849 45.9804 49.4922C45.3796 50.8412 44.8517 51.9167 44.4692 52.6458C44.0869 53.375 44.451 52.7005 44.4146 52.7734C44.0869 53.3932 43.9048 53.7396 43.9048 53.7396V53.758C43.6499 54.2137 43.3768 54.651 43.2492 54.651C43.1581 54.651 42.9761 53.4297 43.2856 51.7528C43.9592 48.2344 45.5979 42.7476 45.5798 42.5471C45.5798 42.4559 45.8892 41.4896 44.5237 40.9976C43.1945 40.5054 42.7213 41.3257 42.6119 41.3257C42.5027 41.3257 42.4116 41.6174 42.4116 41.6174C42.4116 41.6174 43.8864 35.4379 39.5895 35.4379C36.8949 35.4379 33.1806 38.3728 31.3417 41.0525C30.1765 41.6905 27.7003 43.0393 25.0785 44.4795C24.0771 45.0264 23.0393 45.6097 22.0561 46.1384L21.856 45.9193C16.6488 40.3594 7.01722 36.4219 7.41777 28.9479C7.56343 26.2318 8.5102 19.0677 25.9164 10.3906C40.1725 3.28127 51.5884 5.23179 53.5728 9.57033C56.3949 15.7682 47.4734 27.2891 32.653 28.9479C27.0088 29.586 24.0409 27.3985 23.2945 26.5781C22.5116 25.7214 22.4024 25.6849 22.1111 25.849C21.6377 26.1042 21.929 26.8698 22.1111 27.3255C22.5481 28.474 24.3688 30.5156 27.464 31.5365C30.1766 32.4297 36.8042 32.9219 44.8153 29.8229C53.7914 26.3412 60.8012 16.6797 58.7438 8.60419C56.65 0.382836 43.031 -2.31508 30.1586 2.26044C22.4933 4.99481 14.1908 9.26044 8.21889 14.8568C1.11812 21.4922 -0.0107225 27.2891 0.462662 29.6953C2.11969 38.2813 13.9359 43.8776 18.6698 48.0156C18.4331 48.1431 18.2146 48.2707 18.0143 48.3802C15.6474 49.5467 6.63487 54.2682 4.37719 59.2628C1.82819 64.9139 4.77774 68.9792 6.74411 69.526C12.8253 71.2214 19.0521 68.1771 22.4204 63.1641C25.7703 58.1511 25.37 51.6432 23.8224 48.6719L23.7676 48.5625L25.6247 47.4688C26.8265 46.7578 28.01 46.1016 29.0476 45.5363C28.4652 47.1222 28.0462 48.9998 27.8279 51.7342C27.573 54.9427 28.8839 59.0988 30.6136 60.7394C31.3783 61.4502 32.2887 61.4686 32.8531 61.4686C34.8559 61.4686 35.7662 59.8095 36.7676 57.8227C38.0057 55.3983 39.0981 52.591 39.0981 52.591C39.0981 52.591 37.7326 60.1925 41.465 60.1925C42.8306 60.1925 44.1961 58.4243 44.8152 57.5128V57.5311C44.8152 57.5311 44.8516 57.4764 44.9244 57.3488C45.0008 57.2357 45.0737 57.1202 45.1429 57.0026V56.9662C45.6891 56.0182 46.909 53.849 48.7297 50.2578C51.0782 45.6276 53.3361 39.8307 53.3361 39.8307C53.3361 39.8307 53.5546 41.2526 54.2282 43.5859C54.6286 44.9715 55.5025 46.4844 56.1762 47.9609C55.63 48.7266 55.3023 49.1643 55.3023 49.1643L55.3205 49.1825C54.8837 49.7658 54.3919 50.3858 53.8823 51.0054C52.0252 53.2294 49.8039 55.7634 49.5126 56.4926C49.1666 57.3491 49.2395 57.9872 49.9131 58.4978C50.4047 58.8624 51.2787 58.9351 52.2072 58.8624C53.8823 58.7528 55.0475 58.3337 55.6302 58.0783C56.5405 57.7502 57.5783 57.258 58.5797 56.5288C60.4004 55.1801 61.5111 53.266 61.4018 50.7139C61.3472 49.3103 60.892 47.9249 60.3276 46.6124C60.4915 46.3754 60.6555 46.1382 60.8192 45.8832C63.6959 41.6721 65.9172 37.042 65.9172 37.042C65.9172 37.042 66.1357 38.4639 66.8093 40.7972C67.1551 41.9821 67.8471 43.2766 68.4662 44.5526C65.7715 46.7584 64.0783 49.3105 63.4956 50.9875C62.4214 54.0865 63.2589 55.4901 64.843 55.8183C65.5529 55.9641 66.5726 55.636 67.3372 55.3078C68.2839 54.998 69.431 54.4691 70.4872 53.6855C72.3079 52.3365 74.0558 50.4589 73.9647 47.925C73.9101 46.7584 73.6006 45.6099 73.1818 44.5162C75.4759 43.5683 78.4435 43.0214 82.2125 43.4771C90.3147 44.425 91.9169 49.4927 91.6076 51.6073C91.2981 53.7221 89.6048 54.8886 89.0402 55.2532C88.4758 55.5995 88.2937 55.7273 88.3483 55.9823C88.4212 56.3653 88.6761 56.3469 89.1676 56.2742C89.8413 56.1646 93.4281 54.5424 93.5738 50.6415C93.7922 45.6278 89.0402 40.159 80.6103 40.2136ZM18.1235 61.3047C15.4471 64.2396 11.6782 65.3516 10.076 64.4036C8.34634 63.401 9.01982 59.0807 12.3155 55.9636C14.3183 54.0677 16.9219 52.3177 18.6333 51.2422C19.0157 51.0052 19.5983 50.659 20.2902 50.2396C20.3994 50.1669 20.4723 50.1302 20.4723 50.1302C20.5997 50.0573 20.7454 49.9662 20.891 49.875C22.1109 54.3229 20.9456 58.224 18.1235 61.3047ZM37.6962 47.9792C36.7676 50.2578 34.8013 56.1094 33.6178 55.7813C32.598 55.5078 31.9791 51.0781 33.4173 46.7031C34.1456 44.4972 35.6932 41.8724 36.6036 40.8514C38.0785 39.2108 39.6806 38.6639 40.0813 39.3384C40.5547 40.2136 38.2788 46.5573 37.6962 47.9792ZM53.8459 55.7083C53.4453 55.909 53.0812 56.0547 52.9173 55.9455C52.7899 55.8726 53.081 55.5992 53.081 55.5992C53.081 55.5992 55.102 53.4299 55.9031 52.4273C56.3583 51.8441 56.9045 51.1696 57.4871 50.4038V50.6226C57.4873 53.2474 54.9747 54.9974 53.8459 55.7083ZM66.2993 52.8646C66.008 52.6458 66.0446 51.9714 67.0276 49.8568C67.4102 49.0182 68.2839 47.6146 69.7951 46.2839C69.9772 46.8307 70.0866 47.3592 70.0682 47.8516C70.0502 51.1328 67.7197 52.3542 66.2993 52.8646Z" fill="#CF649A"/>
</g>
<defs>
<clipPath id="clip0_9_77">
<rect width="93.2203" height="70" fill="white" transform="translate(0.389832)"/>
</clipPath>
</defs>
</svg>
