<svg width="36" height="28" viewBox="0 0 36 28" fill="none" xmlns="http://www.w3.org/2000/svg">
<path d="M11.4692 28C24.5119 28 31.6445 17.2287 31.6445 7.88816C31.6445 7.58226 31.6382 7.27776 31.6244 6.97452C33.0122 5.97346 34.21 4.73399 35.1614 3.31422C33.8909 3.8773 32.5237 4.25628 31.0894 4.42715C32.5534 3.55208 33.6773 2.16769 34.2076 0.51751C32.8156 1.34064 31.2928 1.9209 29.7049 2.23328C28.4109 0.85932 26.5688 0 24.529 0C20.6131 0 17.4377 3.16554 17.4377 7.06755C17.4377 7.6223 17.5 8.16172 17.6217 8.6793C11.7283 8.38369 6.50249 5.57095 3.00512 1.29402C2.37521 2.37275 2.04388 3.59874 2.04498 4.8468C2.04498 7.29918 3.29678 9.46407 5.20047 10.7306C4.07441 10.6964 2.97308 10.3932 1.98907 9.84655C1.98801 9.87623 1.98801 9.90514 1.98801 9.93685C1.98801 13.3601 4.43218 16.2182 7.67674 16.8659C7.06737 17.0313 6.43856 17.1149 5.80698 17.1146C5.35087 17.1146 4.90635 17.0698 4.47433 16.9872C5.37707 19.7957 7.99475 21.8395 11.0983 21.8966C8.67137 23.7929 5.61415 24.9223 2.29141 24.9223C1.72617 24.9228 1.16139 24.8901 0.600006 24.8244C3.73821 26.8295 7.46452 27.9995 11.4696 27.9995" fill="#EDF8F8"/>
</svg>
