<svg width="88" height="60" viewBox="0 0 88 60" fill="none" xmlns="http://www.w3.org/2000/svg">
<g clip-path="url(#clip0_84_54)">
<path d="M5.60937 0H82.375C84.9844 0 87.1094 2.125 87.1094 4.73437V55.25C87.1094 57.8594 84.9844 59.9844 82.375 59.9844H5.60937C3 60 0.875 57.875 0.875 55.2656V4.73437C0.875 2.125 3 0 5.60937 0Z" fill="#B22234"/>
<path d="M0.90625 4.26562H87.1094C87.125 4.42187 87.1406 4.57812 87.1406 4.75V9.34375H0.875V4.73437C0.875 4.57812 0.890625 4.42187 0.90625 4.26562ZM87.125 13.5469V18.6094H0.875V13.5469H87.125ZM87.125 22.8281V27.8906H0.875V22.8281H87.125V22.8281ZM87.125 32.1094V37.1719H0.875V32.1094H87.125V32.1094ZM87.125 41.3906V46.4531H0.875V41.3906H87.125V41.3906ZM87.125 50.6719V55.25C87.125 55.4062 87.1094 55.5781 87.0937 55.7344H0.90625C0.890625 55.5937 0.875 55.4219 0.875 55.2656V50.6875H87.125V50.6719Z" fill="white"/>
<path d="M33.375 0V32.3125H0.875V4.73437C0.875 2.125 3 0 5.60937 0H33.375Z" fill="#3C3B6E"/>
<path d="M2.79688 4.46875L3.875 7.82813L1.03125 5.75H4.5625L1.70313 7.82813L2.79688 4.46875Z" fill="white"/>
<path d="M2.79688 10.9688L3.875 14.3281L1.03125 12.25H4.5625L1.70313 14.3281L2.79688 10.9688Z" fill="white"/>
<path d="M2.79688 17.4688L3.875 20.8281L1.03125 18.75H4.5625L1.70313 20.8281L2.79688 17.4688Z" fill="white"/>
<path d="M2.79688 23.9688L3.875 27.3281L1.03125 25.25H4.5625L1.70313 27.3281L2.79688 23.9688Z" fill="white"/>
<path d="M6.60938 1.21875L7.70312 4.57812L4.84375 2.5H8.39062L5.51563 4.57812L6.60938 1.21875Z" fill="white"/>
<path d="M6.60938 7.71875L7.70312 11.0781L4.84375 9H8.39062L5.51563 11.0781L6.60938 7.71875Z" fill="white"/>
<path d="M6.60938 14.2188L7.70312 17.5781L4.84375 15.5H8.39062L5.51563 17.5781L6.60938 14.2188Z" fill="white"/>
<path d="M6.60938 20.7188L7.70312 24.0781L4.84375 22H8.39062L5.51563 24.0781L6.60938 20.7188Z" fill="white"/>
<path d="M6.60938 27.2188L7.70312 30.5781L4.84375 28.5H8.39062L5.51563 30.5781L6.60938 27.2188Z" fill="white"/>
<path d="M10.4375 4.46875L11.5313 7.82813L8.67188 5.75H12.2031L9.34375 7.82813L10.4375 4.46875Z" fill="white"/>
<path d="M10.4375 10.9688L11.5313 14.3281L8.67188 12.25H12.2031L9.34375 14.3281L10.4375 10.9688Z" fill="white"/>
<path d="M10.4375 17.4688L11.5313 20.8281L8.67188 18.75H12.2031L9.34375 20.8281L10.4375 17.4688Z" fill="white"/>
<path d="M10.4375 23.9688L11.5313 27.3281L8.67188 25.25H12.2031L9.34375 27.3281L10.4375 23.9688Z" fill="white"/>
<path d="M14.2656 1.21875L15.3437 4.57812L12.5 2.5H16.0312L13.1719 4.57812L14.2656 1.21875Z" fill="white"/>
<path d="M14.2656 7.71875L15.3437 11.0781L12.5 9H16.0312L13.1719 11.0781L14.2656 7.71875Z" fill="white"/>
<path d="M14.2656 14.2188L15.3437 17.5781L12.5 15.5H16.0312L13.1719 17.5781L14.2656 14.2188Z" fill="white"/>
<path d="M14.2656 20.7188L15.3437 24.0781L12.5 22H16.0312L13.1719 24.0781L14.2656 20.7188Z" fill="white"/>
<path d="M14.2656 27.2188L15.3437 30.5781L12.5 28.5H16.0312L13.1719 30.5781L14.2656 27.2188Z" fill="white"/>
<path d="M18.0781 4.46875L19.1719 7.82813L16.3125 5.75H19.8438L16.9844 7.82813L18.0781 4.46875Z" fill="white"/>
<path d="M18.0781 10.9688L19.1719 14.3281L16.3125 12.25H19.8438L16.9844 14.3281L18.0781 10.9688Z" fill="white"/>
<path d="M18.0781 17.4688L19.1719 20.8281L16.3125 18.75H19.8438L16.9844 20.8281L18.0781 17.4688Z" fill="white"/>
<path d="M18.0781 23.9688L19.1719 27.3281L16.3125 25.25H19.8438L16.9844 27.3281L18.0781 23.9688Z" fill="white"/>
<path d="M21.9063 1.21875L23 4.57812L20.1406 2.5H23.6719L20.8125 4.57812L21.9063 1.21875Z" fill="white"/>
<path d="M21.9063 7.71875L23 11.0781L20.1406 9H23.6719L20.8125 11.0781L21.9063 7.71875Z" fill="white"/>
<path d="M21.9063 14.2188L23 17.5781L20.1406 15.5H23.6719L20.8125 17.5781L21.9063 14.2188Z" fill="white"/>
<path d="M21.9063 20.7188L23 24.0781L20.1406 22H23.6719L20.8125 24.0781L21.9063 20.7188Z" fill="white"/>
<path d="M21.9063 27.2188L23 30.5781L20.1406 28.5H23.6719L20.8125 30.5781L21.9063 27.2188Z" fill="white"/>
<path d="M25.7187 4.46875L26.8125 7.82813L23.9531 5.75H27.4844L24.6406 7.82813L25.7187 4.46875Z" fill="white"/>
<path d="M25.7187 10.9688L26.8125 14.3281L23.9531 12.25H27.4844L24.6406 14.3281L25.7187 10.9688Z" fill="white"/>
<path d="M25.7187 17.4688L26.8125 20.8281L23.9531 18.75H27.4844L24.6406 20.8281L25.7187 17.4688Z" fill="white"/>
<path d="M25.7187 23.9688L26.8125 27.3281L23.9531 25.25H27.4844L24.6406 27.3281L25.7187 23.9688Z" fill="white"/>
<path d="M29.5469 1.21875L30.6406 4.57812L27.7812 2.5H31.3125L28.4531 4.57812L29.5469 1.21875Z" fill="white"/>
<path d="M29.5469 7.71875L30.6406 11.0781L27.7812 9H31.3125L28.4531 11.0781L29.5469 7.71875Z" fill="white"/>
<path d="M29.5469 14.2188L30.6406 17.5781L27.7812 15.5H31.3125L28.4531 17.5781L29.5469 14.2188Z" fill="white"/>
<path d="M29.5469 20.7188L30.6406 24.0781L27.7812 22H31.3125L28.4531 24.0781L29.5469 20.7188Z" fill="white"/>
<path d="M29.5469 27.2188L30.6406 30.5781L27.7812 28.5H31.3125L28.4531 30.5781L29.5469 27.2188Z" fill="white"/>
</g>
<defs>
<clipPath id="clip0_84_54">
<rect width="86.25" height="60" fill="white" transform="translate(0.875)"/>
</clipPath>
</defs>
</svg>
